<svg width="155" height="155" viewBox="0 0 155 155" fill="none" xmlns="http://www.w3.org/2000/svg">
<path d="M72.1217 86.7296C72.7793 86.4243 73.5073 86.4477 74.1649 86.7765L79.0967 89.2424V80.1538H66.3914V89.3834L72.1217 86.7296ZM120.43 122.45C118.904 121.652 117.189 121.511 115.639 122.074L83.0422 133.77C81.4452 134.662 79.5899 135.155 77.6407 135.155H57.9839C56.6922 135.155 55.6354 134.099 55.6354 132.807C55.6354 131.515 56.6922 130.458 57.9839 130.458H77.6407C78.7445 130.458 79.8248 130.177 80.7407 129.707L81.093 129.495C82.4786 128.627 83.4884 127.264 83.7467 125.691C83.887 124.865 83.8451 124.018 83.6239 123.21C83.4028 122.401 83.0077 121.651 82.4665 121.011C81.9252 120.372 81.2507 119.858 80.4901 119.506C79.7296 119.154 78.9014 118.973 78.0634 118.974H63.3854C59.0877 118.974 54.7899 117.424 51.2907 114.63C45.5604 110.05 33.7005 103.944 18.0361 113.502V142.013C22.052 142.036 30.4596 142.764 42.1551 147.344C53.1225 151.642 64.7945 152.628 75.9263 150.209C87.3399 147.72 104.413 142.67 120.759 132.642C122.051 131.844 123.013 130.505 123.366 128.955C123.976 126.372 122.755 123.695 120.43 122.45Z" fill="#00AA2F"/>
<path d="M63.3851 114.23H78.0631C81.1396 114.23 84.0283 115.569 86.0245 117.917C87.0598 119.142 87.8013 120.587 88.1921 122.142C88.5829 123.697 88.6126 125.32 88.279 126.889L104.343 121.135V84.0288C104.343 81.8917 102.605 80.1773 100.491 80.1773H83.7699V93.0705C83.7702 93.379 83.7097 93.6845 83.5918 93.9696C83.4739 94.2546 83.3009 94.5137 83.0828 94.7318C82.8646 94.9499 82.6056 95.1229 82.3205 95.2408C82.0355 95.3587 81.7299 95.4193 81.4214 95.419C81.0692 95.419 80.6934 95.325 80.3646 95.1606L73.0373 91.497L64.982 95.2076C64.254 95.5364 63.4086 95.4894 62.7275 95.0432C62.3945 94.8334 62.1205 94.5422 61.9314 94.197C61.7424 93.8518 61.6446 93.464 61.6472 93.0705V80.1773H44.926C42.7889 80.1773 41.0745 81.9152 41.0745 84.0288V104.437C46.7108 105.752 51.1964 108.524 54.2025 110.942C56.9267 113.103 60.0972 114.23 63.3851 114.23ZM13.3389 105.729L3.28735 105.588L3.16992 148.142L13.198 148.283L13.3389 148.142V105.729ZM83.2533 35.3447C81.4061 34.2443 79.2973 33.6603 77.1472 33.6538C70.501 33.6538 65.0995 39.0553 65.0995 45.7015C65.0995 52.3477 70.501 57.7493 77.1472 57.7493C80.576 57.7493 83.7699 56.2697 86.0245 53.8038C84.0517 53.2402 82.2669 52.1129 80.9517 50.5159C77.6873 46.5705 78.0866 40.5349 81.8442 36.7538L83.2533 35.3447Z" fill="#00AA2F"/>
<path d="M104.554 18.6235C104.906 19.4924 104.718 20.5023 104.037 21.1833L85.1553 40.0651C83.0887 42.1318 82.8303 45.3962 84.5682 47.5098C85.5546 48.7076 86.9402 49.4121 88.4667 49.4826C89.9932 49.5765 91.4493 48.9894 92.5296 47.9091L108.194 32.2447C108.411 32.027 108.669 31.8542 108.953 31.7364C109.238 31.6185 109.542 31.5579 109.85 31.5579C110.157 31.5579 110.462 31.6185 110.746 31.7364C111.03 31.8542 111.288 32.027 111.505 32.2447C114.699 35.3916 118.927 36.9886 123.412 37.0356C127.569 36.9651 131.467 35.3682 134.474 32.5265V3.52271H93.7743C89.8288 3.52271 86.0947 5.0727 83.3001 7.8674L73.9766 17.1909H102.393C103.333 17.1674 104.202 17.7545 104.554 18.6235Z" fill="#00AA2F"/>
<path d="M45.2783 50.5159C47.9372 50.5159 50.0927 48.3604 50.0927 45.7015C50.0927 43.0426 47.9372 40.8871 45.2783 40.8871C42.6193 40.8871 40.4639 43.0426 40.4639 45.7015C40.4639 48.3604 42.6193 50.5159 45.2783 50.5159Z" fill="#00AA2F"/>
<path d="M139.194 3.52271H151.853V31.1409H139.194V3.52271ZM109.979 37.1295L95.8649 51.2439C94.7376 52.3712 93.3285 53.1697 91.8255 53.6629C88.9134 59.0174 83.3005 62.4462 77.1475 62.4462C67.9179 62.4462 60.4028 54.931 60.4028 45.7015C60.4028 36.4719 67.9179 28.9568 77.1475 28.9568C80.5528 28.9568 83.8641 30.0136 86.6354 31.9394L96.7104 21.8644H31.7278C30.8588 21.8644 30.1543 22.5689 30.1543 23.4379V67.9182C30.1543 68.7871 30.8588 69.4916 31.7278 69.4916H122.591C123.46 69.4916 124.164 68.7871 124.164 67.9182V41.6621C123.929 41.6621 123.718 41.7091 123.483 41.7091C118.528 41.7091 113.807 40.1826 109.979 37.1295ZM45.2785 55.2129C40.0414 55.2129 35.7672 50.9386 35.7672 45.7015C35.7672 40.4644 40.0414 36.1901 45.2785 36.1901C50.5157 36.1901 54.7899 40.4644 54.7899 45.7015C54.7899 50.9386 50.5157 55.2129 45.2785 55.2129Z" fill="#00AA2F"/>
</svg>
