<svg width="23" height="23" viewBox="0 0 23 23" fill="none" xmlns="http://www.w3.org/2000/svg">
<g clip-path="url(#clip0_358_770)">
<path d="M20.9235 13.4601C20.5763 13.4526 20.3128 13.5997 20.1081 13.8292C19.6985 17.4186 18.0051 21.0437 11.3531 21.0437C4.79765 21.0437 2.87085 17.2585 2.35145 13.8194C2.14793 13.5955 1.88718 13.4526 1.54505 13.4601C-0.216978 13.4986 -0.282034 10.5203 1.48 10.4818C2.39271 10.4818 3.44564 8.19122 5.5428 7.3584L4.5757 11.061L4.30555 11.2378H18.1631L17.8929 11.061L16.9258 7.3584C19.023 8.19122 20.0759 10.4818 20.9886 10.4818C22.7505 10.5203 22.6855 13.4986 20.9235 13.4601Z" fill="#2B3B47"/>
<path d="M20.232 11.2376C20.232 14.0076 16.1898 16.2531 11.2035 16.2531C6.2172 16.2531 2.17505 14.0076 2.17505 11.2376C2.17505 8.46768 6.21724 6.22217 11.2036 6.22217C16.1899 6.22217 20.232 8.46768 20.232 11.2376Z" fill="#597B91"/>
<path d="M19.1277 11.8888C19.1277 14.1105 15.5799 15.9115 11.2035 15.9115C6.82718 15.9115 3.27936 14.1105 3.27936 11.8888C3.27936 9.66718 6.82713 7.86621 11.2035 7.86621C15.5798 7.86621 19.1277 9.66722 19.1277 11.8888Z" fill="#F9E7C0"/>
<path d="M11.5495 7.62321C11.8861 6.60585 11.2191 6.7063 10.6658 7.7853C10.6587 7.78432 10.6517 7.78343 10.6446 7.78263C10.9583 6.77074 10.2237 6.94592 9.66672 8.15547C10.0011 7.23375 9.43471 7.2582 8.86364 7.95496C8.98461 7.23904 8.35387 7.46322 7.85079 8.51842C7.62009 8.47804 7.52336 8.61506 7.66183 8.90946C7.62295 8.92393 7.58441 8.9393 7.54624 8.95557C6.81619 8.36923 6.33962 8.54065 6.91305 9.30946L6.90264 9.31668C6.04505 8.45538 5.36798 8.52962 5.91984 9.32793C5.90989 9.33096 5.89971 9.33436 5.8893 9.33812C5.07756 8.56396 4.45986 8.64473 4.96189 9.3943C4.82377 9.40436 4.66041 9.42807 4.46686 9.46928C3.0438 9.77212 3.56539 10.3903 4.97484 10.1487C4.32594 11.0015 4.98932 11.1232 5.86323 10.2825C5.8697 10.2858 5.8761 10.2889 5.88243 10.292C5.25694 11.147 6.00865 11.22 6.92836 10.2571C6.31263 11.0201 6.85626 11.181 7.62272 10.7076C7.23728 11.416 8.10581 11.329 9.03991 10.1961C9.30845 10.1926 9.64817 10.1424 10.0385 10.0223C10.0385 10.0223 10.1299 9.85507 10.0756 9.71293C10.5332 9.7275 10.5835 9.41888 9.89168 8.983C11.047 9.5903 11.7284 9.30041 10.9224 8.70655C10.9309 8.70042 10.9394 8.6939 10.948 8.68699C11.9672 9.15538 12.5252 8.87831 11.8068 8.33253C11.9342 8.2781 12.081 8.20263 12.2506 8.10078C13.4981 7.35191 12.8039 6.93677 11.5495 7.62321ZM6.30326 9.7926L6.30571 9.78945L6.31656 9.80051L6.31258 9.80436L6.30326 9.7926ZM7.31791 9.79527C7.32163 9.79028 7.32539 9.78551 7.32911 9.78048L7.32903 9.77987C7.33988 9.79041 7.35055 9.80047 7.36118 9.81049C7.35479 9.81591 7.34841 9.8214 7.34202 9.82694C7.33404 9.81634 7.326 9.80578 7.31791 9.79527ZM9.41524 8.69661C9.4263 8.70408 9.43732 8.71145 9.44832 8.71871L9.44254 8.7363L9.44281 8.73686C9.42911 8.73043 9.41577 8.7244 9.40242 8.71836C9.40671 8.71121 9.41099 8.70397 9.41524 8.69661ZM10.3962 8.3835L10.4088 8.39155L10.4075 8.39531C10.4028 8.3929 10.3983 8.39072 10.3936 8.3884L10.3962 8.3835ZM9.27678 9.54764C9.20923 9.49343 9.12851 9.43638 9.03422 9.37697C9.14328 9.43454 9.25495 9.48701 9.36887 9.53421C9.33938 9.53801 9.30854 9.54256 9.27678 9.54764Z" fill="#2ABA34"/>
<path d="M14.7164 8.78076C16.5539 8.78076 16.5539 10.6465 14.7164 10.6465C12.8789 10.6465 12.8789 8.78076 14.7164 8.78076ZM16.0945 12.8217C17.932 12.8217 17.932 10.956 16.0945 10.956C14.257 10.956 14.257 12.8217 16.0945 12.8217ZM15.1539 14.6439C16.9914 14.6439 16.9914 12.7782 15.1539 12.7782C13.3164 12.7782 13.3164 14.6439 15.1539 14.6439Z" fill="#F9F9F7"/>
<path d="M14.0298 12.3158C13.9955 12.3616 13.9457 12.3933 13.8898 12.4049C13.8338 12.4166 13.7755 12.4075 13.7258 12.3793L13.7069 12.3686L13.6 12.308C13.5651 12.2899 13.5208 12.27 13.4716 12.2459C13.4201 12.2251 13.3625 12.2006 13.298 12.1781C13.2325 12.1573 13.1629 12.1327 13.086 12.1159C13.0108 12.0943 12.9287 12.0829 12.8456 12.0671L12.7174 12.0531C12.6744 12.047 12.6305 12.0461 12.5865 12.045L12.5204 12.0428L12.4873 12.0416L12.4541 12.0432L12.3217 12.0491C12.2778 12.0525 12.2344 12.0601 12.1912 12.065L12.1267 12.0731L12.0638 12.0872C12.0222 12.0967 11.9807 12.1044 11.9405 12.1146L11.8237 12.1518C11.8046 12.1579 11.7855 12.1632 11.767 12.1698L11.7134 12.1929L11.61 12.2364C11.5447 12.2687 11.4854 12.3041 11.4295 12.3329C11.3808 12.3658 11.3392 12.3957 11.3005 12.4207L11.2726 12.439L11.2403 12.4653L11.1833 12.5118L11.0752 12.6C10.8876 12.753 10.6115 12.725 10.4585 12.5374C10.3054 12.3498 10.3334 12.0737 10.521 11.9206C10.5347 11.9096 10.5487 11.8994 10.5632 11.8902L10.5658 11.8886L10.684 11.8146L10.7816 11.7534L10.8312 11.7268C10.8998 11.6908 10.9778 11.6492 11.062 11.609C11.1452 11.5769 11.2339 11.5395 11.3299 11.5071L11.4801 11.4647L11.5576 11.4434C11.584 11.4376 11.611 11.4332 11.638 11.4281L11.8025 11.3986C11.8584 11.3916 11.9152 11.3877 11.9722 11.3824L12.0578 11.3752L12.144 11.3747C12.2014 11.3752 12.2591 11.3734 12.3163 11.3762L12.4872 11.39L12.5296 11.3936L12.5714 11.4002L12.6546 11.4134C12.7097 11.422 12.7643 11.4305 12.8171 11.4444C12.87 11.4571 12.9224 11.4688 12.9733 11.4821L13.0084 11.493C12.9577 11.4429 12.8993 11.3963 12.8416 11.3463L12.7378 11.2698C12.7037 11.2429 12.6662 11.2201 12.6287 11.197L12.5726 11.1618L12.5446 11.1442L12.5151 11.1289L12.3976 11.0676C12.358 11.0484 12.3166 11.0331 12.2768 11.0157L12.217 10.9903L12.1556 10.9708C12.1148 10.9582 12.0751 10.944 12.0352 10.9326L11.9155 10.9061C11.8959 10.9018 11.8767 10.8968 11.8574 10.8931L11.7994 10.8862L11.6882 10.872C11.6154 10.8671 11.5464 10.8678 11.4836 10.8647C11.425 10.8686 11.374 10.8736 11.328 10.8758L11.2947 10.8776L11.2535 10.8841L11.1809 10.8957L11.0431 10.9176C10.804 10.9557 10.5793 10.7927 10.5413 10.5536C10.5032 10.3145 10.6661 10.0898 10.9052 10.0518C10.9226 10.049 10.9399 10.0473 10.957 10.0466L10.96 10.0466L11.0994 10.0419L11.1728 10.0395L11.2145 10.0381L11.2708 10.0401C11.3482 10.0434 11.4365 10.0466 11.5295 10.0541C11.6176 10.0682 11.7131 10.0804 11.8123 10.1006L11.9635 10.1395L12.0412 10.1599C12.067 10.1682 12.0926 10.178 12.1185 10.1871L12.2755 10.2443C12.3273 10.2663 12.3785 10.2915 12.4303 10.3155L12.508 10.3523L12.5827 10.3952C12.6322 10.4245 12.683 10.4519 12.731 10.4831L12.8718 10.5809L12.9067 10.6053L12.9396 10.6319L13.0048 10.6851C13.0482 10.7203 13.0911 10.7551 13.1297 10.7936C13.1692 10.8312 13.2085 10.8677 13.2458 10.9047C13.3169 10.9827 13.3874 11.0555 13.4454 11.1325C13.507 11.206 13.5576 11.2819 13.6051 11.3505C13.6513 11.4203 13.6896 11.4873 13.7239 11.546C13.7551 11.6073 13.783 11.6597 13.804 11.7044L13.865 11.8482C13.8737 11.8688 13.8791 11.8901 13.8817 11.9113L13.9825 11.9868C14.0072 12.0053 14.0281 12.0285 14.0438 12.0551C14.0596 12.0816 14.0699 12.111 14.0743 12.1416C14.0787 12.1721 14.077 12.2032 14.0694 12.2331C14.0617 12.263 14.0483 12.2911 14.0298 12.3158Z" fill="#FF473E"/>
<path d="M10.2277 14.9844C8.84268 14.6029 9.72455 11.6323 11.2597 11.7953C12.7949 11.9583 15.5123 16.4397 10.2277 14.9844ZM8.99651 12.1579C9.643 10.7559 6.1878 9.63106 5.38254 10.8207C2.31002 15.3599 8.35006 13.5599 8.99651 12.1579Z" fill="#E2AF8D"/>
<path d="M7.76214 15.1638C6.37714 14.7824 7.25901 11.8118 8.7942 11.9747C10.3294 12.1377 13.0467 16.6191 7.76214 15.1638Z" fill="#D19878"/>
<path d="M10.2568 0.546707L10.332 0.554276C10.3817 0.562501 10.4493 0.557908 10.5508 0.599601C10.5998 0.617539 10.6597 0.633595 10.71 0.668245C10.7623 0.700926 10.8255 0.730851 10.8757 0.783701L10.9588 0.860833C10.987 0.887958 11.0077 0.922126 11.0335 0.954501C11.088 1.01851 11.1221 1.09791 11.1618 1.18016C11.2266 1.3479 11.2738 1.54591 11.2509 1.75723C11.2306 1.96639 11.1602 2.19184 11.0102 2.38394C10.8655 2.57916 10.6344 2.72568 10.3911 2.78146L10.2993 2.80403C10.2881 2.80841 10.2528 2.81418 10.2307 2.81926L10.1548 2.83492L10.099 2.85303C10.0258 2.87364 9.94348 2.91433 9.8723 2.95405C9.72924 3.03967 9.60433 3.15648 9.51749 3.30068C9.43161 3.44427 9.36686 3.60431 9.34415 3.76981C9.31987 3.93414 9.32079 4.09969 9.35229 4.25133C9.38388 4.40266 9.43716 4.54143 9.50712 4.65833C9.57237 4.76559 9.65384 4.86209 9.74862 4.94441C9.83437 5.01993 9.92367 5.06963 9.99822 5.1104C10.0752 5.14553 10.1378 5.17445 10.1828 5.18714L10.2511 5.21129L10.2572 5.21343C10.2712 5.21845 10.2829 5.22834 10.2902 5.2413C10.2975 5.25426 10.3 5.26942 10.297 5.284C10.2941 5.29859 10.286 5.31163 10.2742 5.32074C10.2624 5.32985 10.2478 5.33442 10.2329 5.33361L10.1544 5.32902C10.1028 5.32692 10.0273 5.31716 9.93154 5.2952C9.8377 5.26856 9.71935 5.235 9.59873 5.16133C9.47702 5.09124 9.3473 4.99101 9.23613 4.85315C9.01021 4.58256 8.85796 4.16466 8.90136 3.71714C8.92131 3.49471 8.98435 3.26297 9.10882 3.05463C9.22961 2.84511 9.41144 2.66224 9.62389 2.53234C9.73523 2.47263 9.84168 2.42231 9.96873 2.38788L10.062 2.36246L10.1382 2.34838C10.1665 2.34278 10.1823 2.34107 10.2208 2.33223L10.2786 2.31823C10.4321 2.28371 10.5715 2.21695 10.6664 2.10123C10.7624 1.98914 10.8285 1.85006 10.8584 1.70617C10.8885 1.56127 10.8745 1.41764 10.8475 1.28945C10.8273 1.2275 10.811 1.16516 10.7799 1.11384C10.7656 1.08768 10.7559 1.05815 10.7389 1.0354L10.6886 0.968545C10.6598 0.920245 10.6151 0.893689 10.5819 0.858164C10.5481 0.82032 10.5106 0.804001 10.4781 0.781689C10.4186 0.734833 10.3413 0.712695 10.2974 0.694714L10.2272 0.666801C10.2196 0.663769 10.2126 0.659265 10.2068 0.653547C10.2009 0.64783 10.1962 0.64101 10.1929 0.633477C10.1897 0.625945 10.188 0.617848 10.1879 0.609648C10.1878 0.601448 10.1893 0.593307 10.1923 0.585689C10.1974 0.573076 10.2064 0.562454 10.218 0.555424C10.2297 0.548393 10.2433 0.545334 10.2568 0.546707ZM6.64845 2.85754C6.63489 2.83626 6.61343 2.82124 6.58879 2.81578C6.56416 2.81031 6.53836 2.81485 6.51707 2.8284L6.4668 2.86043C6.43377 2.8851 6.38656 2.90299 6.32422 2.96074L6.22272 3.0521L6.11943 3.16878C6.05148 3.25733 5.98389 3.36517 5.92421 3.49218C5.87189 3.6212 5.82455 3.76776 5.80556 3.92928C5.77945 4.09054 5.79235 4.26463 5.82149 4.44208C5.8519 4.62053 5.92369 4.79733 6.01937 4.96463C6.07183 5.04556 6.1245 5.12808 6.19144 5.20035C6.22316 5.23793 6.25492 5.27573 6.29241 5.3078L6.38976 5.39456C6.44606 5.44679 6.52656 5.50962 6.55006 5.54812C6.58694 5.58566 6.62281 5.64153 6.65913 5.69403C6.72186 5.80485 6.77607 5.9189 6.8077 6.03851C6.83671 6.15769 6.85946 6.27739 6.85797 6.39315C6.86217 6.509 6.84988 6.61969 6.82923 6.72158C6.81422 6.77054 6.80783 6.82194 6.79173 6.86709C6.77476 6.91168 6.76098 6.9563 6.74387 6.99651L6.6926 7.10978C6.67295 7.14259 6.65466 7.17343 6.63883 7.20261C6.60851 7.26238 6.57211 7.29983 6.5533 7.3322L6.52145 7.37976L6.51318 7.39205C6.50142 7.40958 6.49584 7.43052 6.49732 7.45158C6.49879 7.47263 6.50724 7.49259 6.52132 7.50831C6.5354 7.52403 6.55431 7.53462 6.57508 7.53839C6.59584 7.54217 6.61727 7.53892 6.63598 7.52916C6.63598 7.52916 6.65585 7.51879 6.69308 7.4995C6.72886 7.47802 6.78902 7.45334 6.84979 7.40155C6.88164 7.37718 6.91778 7.35009 6.95431 7.31737L7.06434 7.20204C7.13718 7.11402 7.2092 7.00482 7.27189 6.87519C7.3254 6.74324 7.37908 6.59353 7.39575 6.42745C7.42046 6.26221 7.40821 6.08323 7.37247 5.90306C7.33555 5.72233 7.25859 5.54357 7.15503 5.37859C7.09873 5.29901 7.04443 5.21916 6.96564 5.1405C6.88623 5.05125 6.83246 5.01739 6.76776 4.95938L6.6796 4.885C6.65248 4.86623 6.63047 4.8423 6.6079 4.81885C6.5592 4.77497 6.52166 4.72173 6.4815 4.67063C6.41089 4.56208 6.35148 4.44601 6.31337 4.32413C6.27776 4.20228 6.25558 4.07773 6.25575 3.95798C6.24923 3.83749 6.26787 3.7237 6.28966 3.61892C6.31468 3.51479 6.34876 3.42099 6.38731 3.34049L6.44536 3.22863L6.50215 3.14296C6.53094 3.08919 6.5802 3.04501 6.60181 3.01578L6.64049 2.9705C6.65371 2.95499 6.66162 2.93566 6.66305 2.91533C6.66448 2.895 6.65937 2.87475 6.64845 2.85754ZM15.2022 2.85754C15.1887 2.83626 15.1672 2.82124 15.1426 2.81578C15.1179 2.81031 15.0921 2.81485 15.0709 2.8284L15.0206 2.86043C14.9876 2.8851 14.9403 2.90299 14.878 2.96074L14.7765 3.0521L14.6732 3.16878C14.6053 3.25733 14.5377 3.36517 14.478 3.49218C14.4257 3.6212 14.3783 3.76776 14.3593 3.92928C14.3332 4.09054 14.3461 4.26463 14.3753 4.44208C14.4057 4.62053 14.4775 4.79733 14.5732 4.96463C14.6256 5.04556 14.6783 5.12808 14.7452 5.20035C14.7769 5.23793 14.8087 5.27573 14.8462 5.3078L14.9435 5.39456C14.9998 5.44679 15.0803 5.50962 15.1038 5.54812C15.1407 5.58566 15.1766 5.64153 15.2129 5.69403C15.2756 5.80485 15.3299 5.9189 15.3615 6.03851C15.3905 6.15769 15.4132 6.27739 15.4118 6.39315C15.416 6.509 15.4037 6.61969 15.383 6.72158C15.368 6.77054 15.3616 6.82194 15.3455 6.86709C15.3285 6.91168 15.3148 6.9563 15.2977 6.99651L15.2464 7.10978C15.2267 7.14259 15.2084 7.17343 15.1926 7.20261C15.1623 7.26238 15.1259 7.29983 15.1071 7.3322L15.0752 7.37976L15.067 7.39205C15.0552 7.40958 15.0496 7.43052 15.0511 7.45158C15.0526 7.47263 15.061 7.49259 15.0751 7.50831C15.0892 7.52403 15.1081 7.53462 15.1289 7.53839C15.1496 7.54217 15.1711 7.53892 15.1898 7.52916C15.1898 7.52916 15.2096 7.51879 15.2469 7.4995C15.2826 7.47802 15.3428 7.45334 15.4036 7.40155C15.4354 7.37718 15.4716 7.35009 15.5081 7.31737L15.6181 7.20204C15.691 7.11402 15.763 7.00482 15.8257 6.87519C15.8792 6.74324 15.9329 6.59353 15.9495 6.42745C15.9742 6.26221 15.962 6.08323 15.9263 5.90306C15.8893 5.72233 15.8124 5.54357 15.7088 5.37859C15.6525 5.29901 15.5982 5.21916 15.5194 5.1405C15.44 5.05125 15.3862 5.01739 15.3215 4.95938L15.2334 4.885C15.2063 4.86623 15.1843 4.8423 15.1617 4.81885C15.113 4.77497 15.0754 4.72173 15.0353 4.67063C14.9647 4.56208 14.9053 4.44601 14.8672 4.32413C14.8315 4.20228 14.8094 4.07773 14.8095 3.95798C14.803 3.83749 14.8217 3.7237 14.8434 3.61892C14.8685 3.51479 14.9025 3.42099 14.9411 3.34049L14.9991 3.22863L15.0559 3.14296C15.0847 3.08919 15.134 3.04501 15.1556 3.01578L15.1943 2.9705C15.2075 2.95499 15.2154 2.93566 15.2168 2.91533C15.2183 2.895 15.2131 2.87475 15.2022 2.85754ZM12.0601 7.1877C12.0729 7.17849 12.0816 7.16459 12.0841 7.14902C12.0867 7.13346 12.0829 7.11752 12.0738 7.1047L12.0521 7.07447C12.0396 7.05509 12.0129 7.02494 11.9961 6.98999C11.9748 6.95705 11.9538 6.91255 11.9314 6.86136C11.9127 6.80948 11.8934 6.75129 11.8883 6.68724C11.8778 6.62424 11.8848 6.55595 11.9002 6.48861C11.9156 6.42093 11.9469 6.35364 11.9911 6.2913C12.0376 6.22562 12.0943 6.16773 12.159 6.1198C12.1753 6.10672 12.1919 6.09381 12.2109 6.08305L12.2766 6.04088C12.3205 6.00946 12.3565 5.9924 12.4114 5.93732C12.5163 5.84186 12.5769 5.745 12.6344 5.6375C12.6901 5.5318 12.7199 5.41945 12.7409 5.31139C12.7621 5.20293 12.7615 5.09592 12.7544 4.9963C12.7462 4.89638 12.7239 4.80363 12.6958 4.72094C12.6696 4.64575 12.6345 4.57395 12.5913 4.50705C12.5515 4.4479 12.5123 4.40047 12.474 4.36634C12.4407 4.32907 12.4034 4.30965 12.3827 4.29372L12.3492 4.27093C12.3383 4.26346 12.3253 4.25986 12.3121 4.2607C12.2989 4.26154 12.2864 4.26678 12.2766 4.27557C12.2667 4.28436 12.2601 4.2962 12.2578 4.30919C12.2555 4.32218 12.2576 4.33557 12.2638 4.34723L12.2688 4.35685L12.2853 4.38813C12.2942 4.40992 12.3144 4.43438 12.3283 4.47393C12.3444 4.51146 12.3634 4.55578 12.3769 4.60999C12.3917 4.6631 12.4057 4.72335 12.4116 4.79059C12.4223 4.85652 12.4205 4.92998 12.4189 5.0058C12.4172 5.08218 12.4023 5.16124 12.3865 5.24126C12.3687 5.3211 12.34 5.39998 12.3053 5.47484C12.2711 5.54593 12.2193 5.62464 12.1726 5.66786C12.1587 5.68965 12.1053 5.72535 12.0686 5.75606L12.0666 5.75755C12.064 5.75939 12.0866 5.74416 12.0765 5.75099L12.0753 5.75182L12.0708 5.75506L12.0619 5.76153L12.044 5.77453L12.0086 5.8006C11.9846 5.81709 11.9622 5.83661 11.9404 5.85656C11.8512 5.93268 11.7741 6.02526 11.7204 6.12816C11.6664 6.22992 11.628 6.33925 11.6215 6.44675C11.6146 6.55315 11.6235 6.65469 11.6527 6.74057C11.6791 6.82741 11.72 6.89794 11.7573 6.95726C11.7992 7.01331 11.8385 7.05942 11.876 7.09442C11.9121 7.13222 11.9404 7.14736 11.9597 7.16394L11.9893 7.18651C11.9994 7.19428 12.0117 7.19858 12.0245 7.19879C12.0373 7.19901 12.0497 7.19512 12.0601 7.1877Z" fill="#D7F4F7"/>
</g>
<defs>
<clipPath id="clip0_358_770">
<rect width="22.4" height="22.4" fill="white"/>
</clipPath>
</defs>
</svg>
