<svg width="42" height="40" viewBox="0 0 42 40" fill="none" xmlns="http://www.w3.org/2000/svg">
<path d="M20.6864 33.4274L10.7656 39.4038C10.3274 39.6827 9.86918 39.8022 9.39107 39.7623C8.91295 39.7225 8.49461 39.5631 8.13602 39.2842C7.77744 39.0053 7.49854 38.6571 7.29933 38.2396C7.10012 37.822 7.06027 37.3535 7.1798 36.8339L9.80941 25.5385L1.02412 17.9485C0.625695 17.5899 0.377077 17.1812 0.278268 16.7222C0.179458 16.2632 0.208942 15.8154 0.366718 15.3787C0.524495 14.942 0.76355 14.5834 1.08388 14.3029C1.40422 14.0224 1.84249 13.8431 2.39869 13.7651L13.9929 12.7491L18.4752 2.11109C18.6744 1.63298 18.9836 1.2744 19.4027 1.03534C19.8219 0.796285 20.2498 0.676758 20.6864 0.676758C21.1231 0.676758 21.551 0.796285 21.9702 1.03534C22.3893 1.2744 22.6985 1.63298 22.8977 2.11109L27.38 12.7491L38.9742 13.7651C39.532 13.8447 39.9703 14.024 40.289 14.3029C40.6077 14.5818 40.8468 14.9404 41.0062 15.3787C41.1655 15.8169 41.1958 16.2656 41.097 16.7246C40.9982 17.1835 40.7488 17.5915 40.3488 17.9485L31.5635 25.5385L34.1931 36.8339C34.3126 37.3519 34.2728 37.8204 34.0736 38.2396C33.8743 38.6587 33.5954 39.0069 33.2369 39.2842C32.8783 39.5615 32.4599 39.7209 31.9818 39.7623C31.5037 39.8038 31.0455 39.6842 30.6072 39.4038L20.6864 33.4274Z" fill="#00AA2F"/>
</svg>
