<svg width="37" height="37" viewBox="0 0 37 37" fill="none" xmlns="http://www.w3.org/2000/svg">
<circle cx="18.5" cy="18.5" r="17" fill="white" stroke="#00AA2F" stroke-width="3"/>
<rect x="7" y="7" width="24" height="24" rx="12" fill="#F2F2F2"/>
<path d="M12.3333 21.8201L12.2889 20.7828C11.7063 19.0154 11.4673 16.6961 11.8843 15.3928C12.2049 14.3908 13.5056 12.1981 15.1243 11.4394C18.0483 10.0488 20.5809 10.9024 21.9543 11.3134C23.5776 11.9641 24.9223 12.9171 25.7909 15.0001C26.2043 15.9908 26.5156 17.8334 26.3743 19.6434C26.2749 20.9234 25.8183 22.1754 25.5303 23.1768C25.1816 24.3871 23.7503 25.6741 22.7786 26.4538L22.9419 26.4948L22.4013 27.1571L12.3333 21.8201Z" fill="#3F3F3F" stroke="#3F3F3F" stroke-width="0.666667" stroke-linecap="round" stroke-linejoin="round"/>
<path d="M12.3334 21.82L12.2891 20.7827L12.4424 20.9467L22.7791 26.4534L22.9424 26.494L22.4017 27.1567L12.3334 21.82Z" fill="#3F3F3F" stroke="#3F3F3F" stroke-width="0.666667" stroke-linecap="round" stroke-linejoin="round"/>
<path d="M22.9439 26.4956C22.887 26.4955 22.8309 26.4814 22.7806 26.4546L12.4416 20.948C12.3738 20.9119 12.3198 20.8544 12.2883 20.7843C12.1469 20.47 10.9389 17.6396 12.0136 14.9776C12.6193 13.4786 13.5496 12.3466 14.7773 11.612C15.8339 10.981 17.0743 10.6606 18.4656 10.6606C19.7246 10.6606 21.0816 10.9396 22.2846 11.4463C23.4096 11.9196 24.3289 12.564 24.8066 13.213C25.5823 14.2663 26.0866 15.514 26.3056 16.921C26.4956 18.141 26.4623 19.486 26.2089 20.808C25.7263 23.3296 24.4879 25.5946 23.1276 26.4416C23.0725 26.4764 23.0087 26.4948 22.9436 26.495L22.9439 26.4956Z" fill="#00AA2F"/>
<path d="M26.1763 16.2384C25.2289 16.098 24.2851 15.9345 23.3456 15.7481C21.1903 15.3187 19.449 14.8364 18.3083 14.3514C18.2023 14.3064 17.1716 14.1447 17.0746 14.2077C16.4656 14.3237 15.9636 14.8957 15.9636 15.8731C15.9636 15.9561 15.9626 17.9164 16.4576 18.9321C16.6316 19.2901 17.3476 19.8501 21.3353 21.2921C22.772 21.8079 24.2178 22.298 25.672 22.7621C25.9041 22.126 26.0849 21.4724 26.2126 20.8074C26.466 19.4841 26.4993 18.1397 26.3093 16.9201C26.2736 16.6915 26.2297 16.4642 26.1776 16.2387L26.1763 16.2384Z" fill="#3F3F3F"/>
<path d="M25.5868 16.1467L25.7121 16.9181L25.8321 18.3581L25.8161 19.1731L25.7174 20.1894L25.4881 21.3941L25.2288 22.5874" stroke="#9B9B9A" stroke-width="0.666667" stroke-linecap="round" stroke-linejoin="round"/>
<path d="M17.2799 16.8257C18.0084 16.8257 18.5989 16.2352 18.5989 15.5067C18.5989 14.7783 18.0084 14.1877 17.2799 14.1877C16.5515 14.1877 15.9609 14.7783 15.9609 15.5067C15.9609 16.2352 16.5515 16.8257 17.2799 16.8257Z" fill="black" stroke="black" stroke-width="0.666667"/>
<path d="M12.3333 21.82L22.4033 27.1566M22.9439 26.4956C22.887 26.4955 22.8309 26.4814 22.7806 26.4546L12.4416 20.948C12.3738 20.9119 12.3198 20.8543 12.2883 20.7843C12.1469 20.47 10.9389 17.6396 12.0136 14.9776C12.4546 13.8863 13.0676 12.9893 13.8426 12.2986C14.1318 12.0407 14.4447 11.8108 14.7773 11.612C15.8339 10.981 17.0743 10.6606 18.4656 10.6606C19.7246 10.6606 21.0816 10.9396 22.2846 11.4463C23.4096 11.9196 24.3289 12.564 24.8066 13.213C25.5823 14.2663 26.0866 15.514 26.3056 16.921C26.4956 18.141 26.4623 19.486 26.2089 20.808C25.7263 23.3296 24.4879 25.5946 23.1276 26.4416C23.0725 26.4764 23.0087 26.4948 22.9436 26.495L22.9439 26.4956Z" stroke="black" stroke-width="0.666667" stroke-linecap="round" stroke-linejoin="round"/>
<path d="M26.1763 16.2384C25.2289 16.098 24.2851 15.9345 23.3456 15.7481C21.1903 15.3187 19.449 14.8364 18.3083 14.3514C18.2023 14.3064 17.1716 14.1447 17.0746 14.2077C16.4656 14.3237 15.9636 14.8957 15.9636 15.8731C15.9636 15.9561 15.9626 17.9164 16.4576 18.9321C16.6316 19.2901 17.3476 19.8501 21.3353 21.2921C22.772 21.8079 24.2178 22.298 25.672 22.7621C25.9041 22.126 26.0849 21.4724 26.2126 20.8074C26.466 19.4841 26.4993 18.1397 26.3093 16.9201C26.2736 16.6915 26.2297 16.4642 26.1776 16.2387L26.1763 16.2384Z" stroke="black" stroke-width="0.666667"/>
</svg>
