<svg width="42" height="40" viewBox="0 0 42 40" fill="none" xmlns="http://www.w3.org/2000/svg">
<path d="M20.9062 33.4274L10.9854 39.4038C10.5471 39.6827 10.0889 39.8022 9.61079 39.7623C9.13268 39.7225 8.71433 39.5631 8.35575 39.2842C7.99717 39.0053 7.71827 38.6571 7.51906 38.2396C7.31984 37.822 7.28 37.3535 7.39953 36.8339L10.0291 25.5385L1.24385 17.9485C0.845422 17.5899 0.596804 17.1812 0.497994 16.7222C0.399185 16.2632 0.428668 15.8154 0.586445 15.3787C0.744221 14.942 0.983277 14.5834 1.30361 14.3029C1.62395 14.0224 2.06221 13.8431 2.61842 13.7651L14.2126 12.7491L18.6949 2.11109C18.8941 1.63298 19.2033 1.2744 19.6224 1.03534C20.0416 0.796285 20.4695 0.676758 20.9062 0.676758C21.3428 0.676758 21.7708 0.796285 22.1899 1.03534C22.609 1.2744 22.9182 1.63298 23.1174 2.11109L27.5997 12.7491L39.1939 13.7651C39.7517 13.8447 40.19 14.024 40.5087 14.3029C40.8275 14.5818 41.0665 14.9404 41.2259 15.3787C41.3853 15.8169 41.4155 16.2656 41.3167 16.7246C41.2179 17.1835 40.9685 17.5915 40.5685 17.9485L31.7832 25.5385L34.4128 36.8339C34.5323 37.3519 34.4925 37.8204 34.2933 38.2396C34.0941 38.6587 33.8152 39.0069 33.4566 39.2842C33.098 39.5615 32.6797 39.7209 32.2015 39.7623C31.7234 39.8038 31.2652 39.6842 30.827 39.4038L20.9062 33.4274Z" fill="#E3E3E3"/>
</svg>
