<svg width="26" height="26" viewBox="0 0 26 26" fill="none" xmlns="http://www.w3.org/2000/svg">
<path d="M25.0591 12.2871C24.6483 5.27877 18.2804 -0.12247 10.9458 1.08586C5.89497 1.91961 1.84706 6.01584 1.06164 11.0667C0.602477 13.9908 1.20667 16.7579 2.52375 19.0417L1.44832 23.0413C1.20665 23.9475 2.04038 24.7692 2.93455 24.5154L6.87372 23.4279C8.66206 24.4792 10.7525 25.0833 12.9879 25.0833C19.8029 25.0833 25.4579 19.0779 25.0591 12.2871ZM18.8967 17.495C18.7879 17.7125 18.655 17.9179 18.4858 18.1113C18.1837 18.4375 17.8574 18.6792 17.4949 18.8242C17.1324 18.9813 16.7337 19.0538 16.3108 19.0538C15.6946 19.0538 15.03 18.9088 14.3412 18.6067C13.6404 18.3046 12.9517 17.9058 12.2629 17.4104C11.5621 16.9029 10.9096 16.335 10.2812 15.7188C9.6529 15.0904 9.09704 14.4258 8.58954 13.7371C8.09412 13.0483 7.69539 12.3596 7.40539 11.6708C7.11539 10.9821 6.97041 10.3175 6.97041 9.68919C6.97041 9.27836 7.0429 8.87961 7.1879 8.51711C7.3329 8.14252 7.56251 7.80419 7.88876 7.50211C8.27542 7.11544 8.69831 6.93419 9.1454 6.93419C9.31456 6.93419 9.4837 6.97044 9.64078 7.04294C9.79786 7.11544 9.9429 7.22419 10.0516 7.38127L11.4533 9.36292C11.562 9.52 11.6466 9.65292 11.695 9.78584C11.7554 9.91876 11.7796 10.0396 11.7796 10.1604C11.7796 10.3054 11.7312 10.4504 11.6467 10.5954C11.5621 10.7404 11.4533 10.8854 11.3083 11.0304L10.8491 11.5137C10.7766 11.5862 10.7525 11.6588 10.7525 11.7554C10.7525 11.8038 10.7645 11.8521 10.7766 11.9004C10.8008 11.9488 10.8129 11.985 10.825 12.0213C10.9337 12.2267 11.127 12.4804 11.3929 12.7946C11.6708 13.1087 11.9608 13.435 12.275 13.7492C12.6013 14.0754 12.9154 14.3654 13.2417 14.6433C13.5558 14.9092 13.8216 15.0904 14.027 15.1992C14.0633 15.2113 14.0996 15.2354 14.1358 15.2475C14.1842 15.2717 14.2325 15.2717 14.2929 15.2717C14.4017 15.2717 14.4742 15.2354 14.5467 15.1629L15.0058 14.7038C15.1629 14.5467 15.3079 14.4379 15.4408 14.3654C15.5858 14.2809 15.7187 14.2325 15.8758 14.2325C15.9967 14.2325 16.1175 14.2567 16.2504 14.3171C16.3833 14.3775 16.5283 14.45 16.6733 14.5588L18.6792 15.9846C18.8362 16.0933 18.945 16.2263 19.0175 16.3713C19.0779 16.5284 19.1141 16.6733 19.1141 16.8425C19.0416 17.0479 18.9933 17.2775 18.8967 17.495Z" fill="#00AA2F"/>
</svg>
